<?xml version="1.0" standalone="no"?>
<!DOCTYPE svg PUBLIC "-//W3C//DTD SVG 20010904//EN"
 "http://www.w3.org/TR/2001/REC-SVG-20010904/DTD/svg10.dtd">
<svg version="1.0" xmlns="http://www.w3.org/2000/svg"
 width="2048.000000pt" height="2048.000000pt" viewBox="0 0 2048.000000 2048.000000"
 preserveAspectRatio="xMidYMid meet">
<metadata>
Created by potrace 1.11, written by Peter Selinger 2001-2013
</metadata>
<g transform="translate(0.000000,2048.000000) scale(0.100000,-0.100000)"
fill="#000000" stroke="none">
<path d="M10077 20224 c-1 -1 -92 -5 -202 -8 -110 -4 -220 -9 -245 -11 -25 -2
-83 -6 -130 -9 -124 -9 -205 -16 -295 -26 -44 -5 -105 -12 -135 -15 -92 -9
-212 -25 -265 -35 -27 -5 -70 -11 -95 -15 -25 -3 -72 -10 -105 -16 -33 -6 -71
-12 -85 -13 -14 -2 -36 -6 -50 -9 -14 -4 -41 -9 -60 -12 -43 -6 -63 -10 -186
-36 -55 -11 -110 -23 -124 -25 -140 -27 -590 -146 -815 -216 -168 -52 -504
-166 -550 -187 -11 -5 -69 -28 -130 -51 -60 -23 -123 -48 -140 -55 -16 -7 -68
-29 -115 -48 -86 -36 -179 -78 -325 -145 -131 -61 -533 -265 -639 -326 -54
-31 -100 -56 -103 -56 -2 0 -16 -8 -31 -19 -15 -10 -61 -38 -102 -62 -265
-154 -639 -405 -915 -613 -89 -66 -354 -276 -376 -298 -8 -7 -54 -46 -102 -86
-48 -41 -95 -81 -105 -91 -9 -9 -49 -44 -88 -78 -213 -186 -598 -575 -819
-828 -39 -44 -72 -82 -75 -85 -3 -3 -27 -32 -55 -65 -27 -33 -52 -62 -55 -65
-3 -3 -41 -50 -85 -105 -44 -55 -84 -105 -90 -111 -5 -6 -19 -23 -30 -38 -11
-15 -47 -63 -80 -106 -33 -43 -67 -88 -75 -100 -8 -13 -31 -44 -50 -69 -203
-265 -536 -801 -755 -1216 -96 -181 -234 -465 -281 -578 -14 -34 -39 -90 -55
-125 -16 -35 -29 -65 -29 -68 0 -2 -9 -23 -19 -47 -11 -23 -36 -85 -56 -137
-20 -52 -40 -104 -45 -115 -31 -70 -196 -551 -228 -665 -6 -19 -26 -89 -45
-155 -32 -109 -113 -421 -123 -470 -2 -11 -17 -81 -33 -155 -30 -134 -47 -220
-57 -276 -2 -16 -9 -53 -15 -83 -6 -30 -12 -64 -14 -75 -7 -56 -18 -123 -21
-141 -6 -29 -34 -223 -39 -270 -3 -22 -7 -56 -10 -75 -3 -19 -7 -60 -10 -90
-3 -30 -8 -71 -10 -90 -5 -44 -13 -133 -20 -230 -3 -41 -8 -100 -10 -130 -25
-325 -25 -1030 0 -1330 2 -19 6 -78 9 -130 4 -52 9 -111 11 -130 11 -91 16
-141 20 -181 3 -43 11 -110 21 -177 2 -18 7 -54 10 -80 2 -26 7 -58 9 -72 3
-14 12 -70 20 -125 8 -55 17 -111 20 -125 3 -14 8 -41 11 -60 2 -19 7 -46 10
-60 2 -14 6 -34 8 -45 2 -11 13 -65 25 -120 11 -55 22 -112 25 -128 3 -15 7
-35 10 -45 5 -17 7 -26 26 -115 71 -344 261 -955 431 -1390 295 -751 740
-1567 1187 -2176 69 -95 163 -221 179 -241 6 -8 35 -44 63 -80 28 -36 56 -72
63 -80 7 -8 30 -37 52 -65 88 -110 290 -345 400 -465 99 -108 534 -540 629
-625 49 -44 97 -87 105 -95 37 -35 284 -243 381 -321 94 -75 259 -200 440
-334 112 -82 651 -435 665 -435 2 0 41 -23 87 -51 46 -28 108 -65 138 -81 30
-17 91 -51 135 -75 140 -77 565 -287 715 -352 80 -35 163 -72 185 -82 455
-201 1195 -435 1755 -554 102 -21 180 -38 200 -41 14 -2 45 -9 70 -14 25 -5
61 -12 80 -14 19 -3 45 -8 57 -10 11 -3 43 -8 70 -12 49 -7 69 -10 113 -18 28
-6 54 -9 180 -26 139 -18 164 -21 190 -25 14 -2 57 -7 97 -10 40 -4 85 -8 100
-10 15 -2 66 -6 113 -10 47 -3 105 -8 130 -10 247 -22 1005 -28 1275 -11 77 5
158 10 180 11 46 3 174 14 225 20 19 2 69 7 110 10 41 4 83 9 94 11 10 2 44 6
75 9 31 4 67 8 81 11 14 2 43 6 65 9 94 12 128 17 270 41 83 13 157 27 165 29
8 3 33 7 55 11 22 3 72 12 110 21 75 16 94 19 140 29 259 52 725 180 1040 286
863 290 1621 662 2385 1171 105 70 441 306 450 317 3 3 55 44 115 90 194 150
321 256 544 455 317 282 640 611 896 910 28 32 55 63 60 69 27 29 159 190 218
266 37 47 71 90 76 96 5 6 60 80 123 165 187 251 308 432 581 874 14 22 40 67
57 100 18 33 41 74 50 90 147 249 409 795 542 1129 33 83 66 165 73 181 23 51
216 616 231 675 2 8 22 80 44 160 67 237 146 559 165 672 3 18 8 40 10 48 5
17 54 271 60 310 2 14 6 39 9 55 7 37 45 295 51 345 10 80 26 218 30 263 12
119 15 147 20 222 3 44 8 100 10 125 20 230 26 882 11 1195 -4 94 -9 177 -11
185 -2 8 -6 58 -9 110 -4 52 -9 111 -11 130 -3 19 -8 64 -11 100 -3 36 -7 76
-9 90 -1 14 -6 52 -9 85 -4 33 -9 71 -11 85 -2 14 -7 49 -10 79 -4 30 -9 63
-11 75 -2 12 -7 41 -10 65 -3 24 -10 67 -15 95 -5 28 -12 67 -15 86 -4 30 -34
195 -49 270 -21 109 -27 139 -35 165 -5 17 -12 46 -15 65 -3 19 -11 53 -16 75
-6 22 -12 49 -14 60 -24 143 -274 976 -317 1058 -5 10 -11 26 -13 36 -4 21
-168 439 -195 496 -10 22 -37 81 -58 130 -82 188 -243 516 -321 658 -17 31
-45 83 -62 115 -52 94 -177 308 -240 409 -33 52 -59 96 -59 99 0 3 -5 10 -10
17 -6 7 -52 75 -102 152 -50 77 -94 142 -97 145 -3 3 -30 41 -60 85 -82 120
-354 483 -415 552 -6 7 -15 18 -21 25 -5 8 -46 56 -90 108 -493 588 -1079
1142 -1680 1588 -82 62 -154 115 -160 120 -32 25 -282 195 -420 284 -115 76
-336 208 -346 208 -5 0 -9 5 -9 10 0 6 -4 10 -9 10 -4 0 -69 34 -142 76 -207
118 -618 325 -824 414 -27 12 -75 34 -105 47 -171 78 -502 205 -780 299 -102
35 -321 104 -344 109 -11 3 -40 11 -65 19 -142 43 -452 121 -658 165 -131 28
-154 33 -228 46 -16 3 -68 13 -115 21 -121 23 -115 22 -225 39 -55 8 -136 20
-180 26 -44 5 -91 12 -105 14 -14 2 -52 7 -85 10 -33 3 -73 8 -90 10 -16 2
-61 7 -100 10 -38 3 -86 8 -105 10 -19 2 -80 7 -135 11 -55 3 -116 7 -135 9
-95 9 -766 25 -773 19z"/>
</g>
</svg>
